{
  "accessors": [
    {
      "bufferView": 0,
      "componentType": 5126,
      "count": 8093,
      "min": [
        -1.0,
        -1.045469045639038,
        -1.2017070055007937
      ],
      "max": [
        1.3013720512390137,
        1.0,
        1.2017070055007937
      ],
      "type": "VEC3"
    },
    {
      "bufferView": 1,
      "componentType": 5126,
      "count": 8093,
      "type": "VEC3"
    },
    {
      "bufferView": 2,
      "componentType": 5126,
      "count": 8093,
      "type": "VEC2"
    },
    {
      "bufferView": 3,
      "componentType": 5125,
      "count": 28350,
      "type": "SCALAR"
    }
  ],
  "asset": {
    "generator": "Iray glTF plugin + NVIDIA vk_gltf_renderer v2.0.260219",
    "copyright": "NVIDIA Corporation",
    "version": "2.0"
  },
  "bufferViews": [
    {
      "buffer": 0,
      "byteLength": 97116,
      "byteStride": 12,
      "target": 34962
    },
    {
      "buffer": 0,
      "byteLength": 97116,
      "byteStride": 12,
      "byteOffset": 97116,
      "target": 34962
    },
    {
      "buffer": 0,
      "byteLength": 64744,
      "byteStride": 8,
      "byteOffset": 194232,
      "target": 34962
    },
    {
      "buffer": 0,
      "byteLength": 113400,
      "byteOffset": 258976,
      "target": 34963
    }
  ],
  "materials": [
    {
      "name": "blinn2SG",
      "doubleSided": true,
      "pbrMetallicRoughness": {
        "roughnessFactor": 0.6
      }
    }
  ],
  "meshes": [
    {
      "primitives": [
        {
          "attributes": {
            "NORMAL": 1,
            "POSITION": 0,
            "TEXCOORD_0": 2
          },
          "indices": 3,
          "material": 0,
          "mode": 4
        }
      ],
      "name": "Mesh"
    }
  ],
  "nodes": [
    {
      "translation": [
        -6.100406646728516,
        3.0585501194000244,
        1.417274832725525
      ],
      "rotation": [
        -0.18247966468334198,
        -0.6153372526168823,
        -0.14928126335144043,
        0.7521810531616211
      ],
      "camera": 0,
      "extras": {
        "camera::center": [
          -0.02529621124267578,
          -0.1367936134338379,
          0.18913745880126953
        ],
        "camera::eye": [
          -6.100406646728516,
          3.0585501194000244,
          1.417274832725525
        ],
        "camera::up": [
          0.0,
          1.0,
          0.0
        ]
      },
      "name": "Camera"
    },
    {
      "mesh": 0,
      "name": "ShaderBall"
    }
  ],
  "scene": 0,
  "scenes": [
    {
      "nodes": [
        0,
        1
      ],
      "name": "Scene-0"
    }
  ],
  "cameras": [
    {
      "type": "perspective",
      "name": "default",
      "perspective": {
        "zfar": 10000.0,
        "znear": 0.10000000149011612,
        "aspectRatio": 1.3333333730697632,
        "yfov": 0.7362615466117859
      }
    }
  ],
  "buffers": [
    {
      "byteLength": 372376,
      "uri": "shader_ball.bin"
    }
  ]
}
